<svg width="100" height="101" viewBox="0 0 100 101" fill="none" xmlns="http://www.w3.org/2000/svg">
<rect y="0.15625" width="100" height="100" rx="50" fill="#FECA97"/>
<path d="M55.8942 42.2031H53.9922V53.9413H55.8942V42.2031Z" fill="#F2F2F2"/>
<path d="M54.9524 39.868C55.544 39.868 55.9508 39.4043 56.1455 39.1271C56.7096 38.3132 56.787 37.028 56.3302 36.0729C56.2828 36.0023 56.3277 36.0678 56.2928 35.9872L54.9549 32.7969L53.587 36.0754C53.5771 36.1031 53.5646 36.1308 53.5496 36.1586C53.1902 36.912 53.1702 37.8923 53.4997 38.6559C53.8267 39.4043 54.3783 39.868 54.9524 39.868Z" fill="#CE9D45"/>
<path d="M45.5973 42.2031H43.6953V53.9413H45.5973V42.2031Z" fill="#F2F2F2"/>
<path d="M44.655 39.8655C45.2466 39.8655 45.656 39.4018 45.8507 39.1246C46.4123 38.3106 46.4921 37.0229 46.0329 36.0653C45.9904 35.9948 46.0304 36.0628 45.9954 35.9847L44.6575 32.7969L43.2872 36.0754C42.8878 36.9095 42.8703 37.8898 43.1998 38.6559C43.5243 39.4043 44.0809 39.8655 44.655 39.8655Z" fill="#CE9D45"/>
<path d="M75.7094 73.7303C75.7094 70.6736 74.9256 67.7982 73.5553 65.2933H49.171V71.9487C49.171 71.9562 49.171 71.9663 49.1685 71.9739C49.1411 74.6526 46.9744 76.8224 44.3136 76.8224C41.6353 76.8224 39.4562 74.6249 39.4562 71.921V68.1712C38.7424 68.6147 37.9037 68.8718 37.0051 68.8718C34.8035 68.8718 32.9514 67.332 32.4472 65.2656H26.0622C24.6819 67.7781 23.8906 70.661 23.8906 73.7303V87.7038H75.7094V73.7303V73.7303Z" fill="white"/>
<path d="M20.5441 90.7197C21.2905 91.7479 22.4911 92.3602 23.7516 92.3602H75.8375C77.098 92.3602 78.2986 91.7479 79.045 90.7197L79.5891 89.9688H20L20.5441 90.7197Z" fill="white"/>
<path d="M34.5512 64.1386C34.5512 65.5019 35.652 66.6133 37.0024 66.6133C38.3528 66.6133 39.4535 65.5019 39.4535 64.1386C39.4535 63.5137 39.9578 63.0071 40.5743 63.0071C41.1933 63.0071 41.695 63.5137 41.695 64.1386V71.9254C41.695 73.382 42.8682 74.5639 44.3109 74.5639C45.7537 74.5639 46.9268 73.382 46.9268 71.9254V64.1663C46.9268 63.5414 47.431 63.0349 48.0476 63.0349H72.0624C68.8799 58.8869 63.9077 56.2031 58.314 56.2031H41.2832C35.7019 56.2031 30.7397 58.8768 27.5547 63.0071H33.4305C34.047 63.0071 34.5512 63.5137 34.5512 64.1386Z" fill="white"/>
</svg>
