<svg width="100" height="101" viewBox="0 0 100 101" fill="none" xmlns="http://www.w3.org/2000/svg">
<rect width="100" height="100" rx="50" fill="#FFDEF6"/>
<path d="M36.3056 69.4765L47.2695 98.4991C48.0973 100.695 51.0176 100.719 51.8774 98.5368L63.0741 70.129C63.3474 69.4346 62.7524 68.6328 62.0793 68.8631C57.9351 70.2811 47.5322 72.4339 37.3841 68.2469C36.6961 67.9633 36.0309 68.748 36.3056 69.4765Z" fill="#FFAF62"/>
<path d="M38.6757 66.74C38.675 66.74 38.675 66.74 38.6743 66.7393C37.6292 66.3029 32.6464 65.4749 33.5353 60.2964C33.5353 60.2964 33.906 58.2729 35.3196 56.8215C35.7676 56.361 36.5436 56.4811 36.8333 57.0547C38.4869 60.3284 46.1428 67.7393 64.191 63.4094C65.4953 63.0967 66.1421 64.9304 64.9351 65.5154C59.3083 68.2411 50.3417 70.5261 38.6757 66.74Z" fill="#FC77D7"/>
<path d="M41.7426 51.9C41.0056 51.0108 39.5977 51.1068 38.9977 52.0933C38.1237 53.5297 37.6686 55.6257 40.0123 57.807C46.9135 64.2293 58.5064 62.5988 58.5064 62.5988C58.5064 62.5988 60.5881 62.4446 62.5002 61.3834C65.4126 59.7672 63.8811 55.2859 60.581 55.7302C54.5517 56.5425 45.5645 56.5148 41.7426 51.9Z" fill="#FC77D7"/>
<path d="M58.7966 50.8233C57.6706 46.5916 54.5153 36.6546 49.6667 36.2246C46.721 35.9624 45.6268 37.5104 45.2285 38.8729C45.0702 39.413 45.7092 39.8274 46.1522 39.4805C46.5946 39.1337 47.1143 38.9191 47.6141 39.1785C48.2822 39.5267 48.2517 40.3093 48.0842 40.9518C47.9564 41.4408 47.7313 41.8985 47.4423 42.3129C46.4852 43.6882 43.2136 48.4807 43.3939 49.4708C43.3939 49.4708 43.44 52.6642 50.5173 53.7388C53.6179 54.2086 55.8736 54.2058 57.3113 53.6926C58.4771 53.2747 59.1161 52.0195 58.7966 50.8233ZM56.5935 52.1517C56.2499 52.5149 55.6045 52.5021 55.3013 52.1055C55.0855 51.8226 55.1451 51.5007 55.4433 50.9015C56.2754 49.2334 55.3503 45.9647 55.263 45.4963C55.2516 45.4323 55.3475 45.4117 55.3702 45.4707C55.7791 46.5788 56.9279 49.7004 56.9457 50.8873C56.9528 51.4801 56.8015 51.9328 56.5935 52.1517Z" fill="#FC77D7"/>
</svg>
