<svg width="100" height="100" viewBox="0 0 100 100" fill="none" xmlns="http://www.w3.org/2000/svg">
<rect width="100" height="100" rx="50" fill="#DAF2FC"/>
<path fill-rule="evenodd" clip-rule="evenodd" d="M39.6801 42.7387C34.9675 42.7387 30.2091 42.7387 25.4965 42.7387C24.0623 42.9194 24.1744 45.0487 25.62 45.0768H26.5031V45.3244C26.3772 50.7169 21.1072 56.6333 21 62.6866H44.1731C43.5415 56.5171 38.8248 50.7271 38.8248 45.329V45.0768H39.5531C41.1534 45.22 41.2867 42.7689 39.6812 42.7344L39.6801 42.7387ZM21.0312 81.4694V90.7948C21.0312 92.2929 21.5209 93.8679 22.3969 95.0582C23.3951 96.4149 25.2124 97.9007 26.5026 97.9007H38.8243C40.1982 97.9007 41.4249 96.8599 42.3793 95.7276C41.5615 93.6516 41.0593 91.2645 40.6724 89.1303C40.1686 86.3569 39.9304 84.0689 39.9304 84.0689C39.9304 83.9914 39.9304 83.914 39.9304 83.8342C38.784 83.4314 37.8133 82.5906 37.3405 81.4686L21.0312 81.4694Z" fill="#8ABDD2"/>
<path fill-rule="evenodd" clip-rule="evenodd" d="M60.3128 62.6875C59.8504 62.6875 59.3913 62.7486 58.9655 62.8941C57.5038 63.3964 56.1332 64.549 55.1055 66.2179C56.7196 67.943 57.8266 70.3758 58.2918 73.2278H61.733C62.2271 70.1507 63.5119 67.6189 65.3062 65.9016C64.3236 64.3913 63.0656 63.3229 61.6691 62.8941C61.2384 62.7626 60.7749 62.6898 60.3128 62.6875V62.6875Z" fill="white"/>
<path d="M34.9736 73.2571C34.9736 74.5533 33.9301 75.6045 32.643 75.6045C31.3559 75.6045 30.3125 74.5533 30.3125 73.2571C30.3125 71.9607 32.643 68.5625 32.643 68.5625C32.643 68.5625 34.9736 71.9607 34.9736 73.2571Z" fill="white"/>
<path fill-rule="evenodd" clip-rule="evenodd" d="M41.9648 83.862C41.9648 83.862 42.8535 92.7143 44.9749 96.4937C45.2999 97.0731 45.7236 97.9087 46.3914 97.9024C48.5156 97.8765 51.3487 97.8765 53.4739 97.9024C54.1416 97.9024 54.5284 97.0517 54.8905 96.4937C56.2503 94.3992 57.5464 89.4974 57.5464 89.4974L62.5034 89.4716C62.5034 89.4716 64.0836 94.3666 65.5134 96.4677C65.8878 97.0179 66.2621 97.8827 66.93 97.8766C69.0552 97.8508 71.8883 97.8508 74.0125 97.8766C74.6801 97.8766 75.1114 97.0524 75.429 96.4677C77.4878 92.6833 78.0849 83.8359 78.0849 83.8359" fill="#8ABDD2"/>
<path fill-rule="evenodd" clip-rule="evenodd" d="M70.508 65.625C70.0455 65.625 69.5865 65.6861 69.1607 65.8316C66.4055 66.7787 63.9729 70.008 63.5938 74.7578H77.4131C76.985 70.0761 74.6838 66.6973 71.8644 65.8316C71.4336 65.7001 70.9701 65.6297 70.508 65.625Z" fill="white"/>
<path fill-rule="evenodd" clip-rule="evenodd" d="M49.5353 65.625C49.0729 65.625 48.6138 65.6861 48.188 65.8316C45.4329 66.7787 43.0003 70.008 42.6211 74.7578H56.4404C56.0123 70.0761 53.7112 66.6973 50.8917 65.8316C50.461 65.7001 49.9974 65.6297 49.5353 65.625Z" fill="white"/>
<path d="M41.3814 76.7656H78.6697C79.9608 76.7656 81.0002 77.7079 81.0002 78.8783V79.9345C81.0002 81.1048 79.9608 82.0471 78.6697 82.0471H41.3814C40.0902 82.0471 39.0508 81.1048 39.0508 79.9345V78.8783C39.0508 77.7079 40.0902 76.7656 41.3814 76.7656V76.7656Z" fill="#8ABDD2"/>
</svg>
