<svg width="100" height="100" viewBox="0 0 100 100" fill="none" xmlns="http://www.w3.org/2000/svg">
<rect width="100" height="100" rx="50" fill="#FACCCC"/>
<path d="M42.6993 67.6483C39.9359 66.7211 37.0337 66.2164 34.1199 66.0639C32.6399 65.9935 31.2177 66.0404 29.8071 66.0756C28.3849 66.1226 26.9743 66.1578 25.5521 66.2399L23.4246 66.3455C22.7887 66.3808 22.0834 66.3573 21.4012 66.3103C20.0368 66.2282 18.6031 66.0756 17.4006 65.6648L17.3543 65.6531C17.1693 65.5944 16.9496 65.6648 16.8456 65.8409C16.7184 66.0521 16.7877 66.3221 16.9843 66.4512C17.6781 66.8854 18.3718 67.1084 19.0771 67.3314C19.7824 67.5427 20.4877 67.707 21.2162 67.8478C21.9446 67.9769 22.6615 68.0825 23.4362 68.1177L25.5637 68.1764C26.9859 68.2234 28.3965 68.2116 29.8187 68.2351C31.2409 68.2468 32.6515 68.1999 34.0159 68.2938C39.5312 68.5403 44.9424 69.9134 50.0531 72.2842C50.2265 72.3663 50.4462 72.3194 50.5618 72.1551C50.689 71.9673 50.6543 71.7091 50.4693 71.58C48.1106 69.8665 45.4743 68.552 42.6993 67.6483Z" fill="#B62D2D"/>
<path d="M86.9884 65.8659C86.1906 48.8599 69.7487 35.5391 49.5259 35.5391C32.5753 35.5391 17.6828 45.1512 13.3006 58.9297C13.0578 59.6926 13.0347 60.4085 13.0231 61.1127C13.0116 61.1948 13 61.277 13 61.3591V68.401C13 72.3561 16.7463 75.3372 21.7066 75.3372H32.2053C41.1084 75.3372 49.4681 78.5647 55.1569 84.1747C58.6372 87.6134 63.5859 89.5265 68.8931 89.5265C69.2978 89.5265 69.7025 89.5147 70.1072 89.4912C79.8081 88.9514 87 81.311 87 72.9781V66.4879C87 66.0537 87 65.9246 86.9884 65.8659ZM83.3 72.1449C82.8722 72.9664 82.3519 73.741 81.7622 74.4569C79.7966 76.8512 77.1025 78.6586 74.1309 79.6209C72.6394 80.1021 71.0784 80.3838 69.5059 80.4542C67.9219 80.5481 66.3263 80.4542 64.7653 80.1491C61.655 79.5505 58.6256 78.1891 56.2438 75.9944C56.0934 75.8536 55.8506 75.8536 55.7003 76.0061C55.55 76.1587 55.5384 76.4169 55.6887 76.5695C58.0475 79.0341 61.1578 80.7359 64.4763 81.534C67.7831 82.332 71.3097 82.3555 74.6512 81.3931C76.0966 80.9824 77.5072 80.3955 78.8253 79.6327C79.6116 79.1867 80.5712 79.7266 80.5712 80.642C80.5712 81.9917 79.9237 83.2592 78.8369 84.0456C76.3741 85.8178 73.31 86.9562 69.9916 87.144C64.8809 87.4139 60.0594 85.7239 56.7756 82.4846C50.6591 76.4404 41.6981 72.9781 32.2053 72.9781H21.7066C18.6078 72.9899 15.3125 71.382 15.3125 68.401V61.5234C15.3241 61.453 15.3356 61.3709 15.3356 61.2887C15.3356 60.7019 15.3472 60.1503 15.5091 59.6456C19.5791 46.8295 33.5697 37.8863 49.5259 37.8863C68.5231 37.8863 83.9591 50.233 84.6759 65.995V66.0771C84.6991 68.178 84.2828 70.2905 83.3 72.1449Z" fill="#B62D2D"/>
<path d="M21.7058 63.5993H32.2045H32.2161C33.1064 63.5993 33.858 62.942 33.9736 62.0501C34.6211 57.1795 37.3383 52.8957 41.362 50.2902C42.3795 49.633 42.6339 48.2481 41.9748 47.2153C41.5008 46.4759 41.073 45.7248 40.6798 44.9384C39.6855 42.9784 37.4077 42.0747 35.3842 42.8611C26.828 46.1942 20.2027 52.4849 17.7052 60.3718C17.6473 60.5713 17.4508 61.1816 18.0173 61.9679C18.5839 62.7543 19.8442 63.5993 21.7058 63.5993Z" fill="#B62D2D"/>
<path d="M62.3478 48.3794C64.7644 46.7481 64.3482 42.969 61.5847 42.077C57.85 40.8916 53.78 40.2344 49.525 40.2344C48.4382 40.2344 47.3628 40.2813 46.2875 40.3635C43.7438 40.5747 42.3447 43.3797 43.6975 45.5862C45.4088 48.3794 47.6866 50.7971 50.3922 52.6632C52.5428 54.1537 55.4219 53.919 57.4107 52.2055C58.775 51.0084 60.521 49.6117 62.3478 48.3794Z" fill="#B62D2D"/>
<path d="M49.8109 55.0695C48.5968 54.2831 47.4406 53.4029 46.3768 52.4405C45.394 51.5486 43.9487 51.4195 42.8271 52.1236C39.4046 54.2597 37.0343 57.7806 36.3406 61.8296C36.1556 62.8859 36.9071 63.8835 37.9478 64.0361C41.4512 64.529 44.8159 65.4679 47.9378 66.8176C49.4756 67.4866 51.1521 66.3834 51.2793 64.6933C51.3834 63.3319 51.6146 61.994 51.9615 60.6795C52.5512 58.5435 51.6493 56.2549 49.8109 55.0695Z" fill="#B62D2D"/>
<path d="M68.7421 48.9361C68.6496 48.9479 68.5687 48.9596 68.4993 48.9831C64.094 49.922 60.1512 52.5979 57.619 56.4592C55.3528 59.9097 54.3584 64.0643 54.8093 68.1838C54.9943 69.9091 55.8499 71.4817 57.1449 72.6202C57.5728 72.9957 57.9774 73.383 58.3821 73.7703C60.9721 76.3289 64.7993 77.7959 68.904 77.7959C69.2277 77.7959 69.5399 77.7842 69.8637 77.7724C76.9168 77.3851 82.6403 72.0451 82.3628 66.1065C82.1315 60.9425 80.1427 56.1892 76.8937 52.1871C74.9165 49.7342 71.8178 48.4549 68.7421 48.9361ZM69.6556 69.5687C66.4643 69.5687 63.8743 67.4679 63.8743 64.8742C63.8743 62.2804 66.4643 60.1796 69.6556 60.1796C72.8468 60.1796 75.4368 62.2804 75.4368 64.8742C75.4368 67.4679 72.8468 69.5687 69.6556 69.5687Z" fill="#B62D2D"/>
<path d="M69.6562 62.5312C67.7369 62.5312 66.1875 63.5875 66.1875 64.8785C66.1875 65.078 66.2338 65.2776 66.3147 65.4653C66.6963 64.456 68.0375 63.7049 69.6562 63.7049C71.275 63.7049 72.6162 64.456 72.9978 65.4653C73.0787 65.2776 73.125 65.078 73.125 64.8785C73.125 63.5758 71.5756 62.5312 69.6562 62.5312Z" fill="#B62D2D"/>
</svg>
