<svg width="100" height="101" viewBox="0 0 100 101" fill="none" xmlns="http://www.w3.org/2000/svg">
<rect y="0.15625" width="100" height="100" rx="50" fill="#FBC1BD"/>
<path fill-rule="evenodd" clip-rule="evenodd" d="M17 62.8586C31.5316 46.9191 43.836 49.7307 45.1132 49.8599C50.4145 50.3954 65.6476 59.0853 64.6397 64.6434C63.8615 68.9396 53.5819 76.5978 43.4263 76.6779C29.2598 76.7896 17.5147 64.7952 17 62.8586ZM54.9012 75.6345L56.841 76.2759C56.841 76.2759 63.3691 84.3294 63.9623 83.5312C64.5562 82.7322 63.9623 74.677 63.9623 74.677C63.9623 74.677 61.7201 75.4769 61.3905 74.2783C61.2839 73.8888 61.0377 73.0998 60.7544 72.2116C59.0435 73.4576 57.0583 74.637 54.9012 75.6345ZM42.0524 78.5653C42.8744 80.9474 42.5489 80.9565 43.7196 81.3352C45.3685 81.8682 45.4346 81.0024 46.0278 81.8682C46.6209 82.7322 45.3016 92.7183 43.9831 88.9901C42.6654 85.2627 41.741 81.3352 39.7632 79.3377C39.4485 79.0207 39.1081 78.6771 38.7562 78.3251C39.8384 78.4636 40.938 78.547 42.0524 78.5653ZM64.7289 68.6652C68.5382 69.7453 72.5895 72.159 82 78.2751C82 78.2751 77.2861 70.9121 77.4175 64.6109C77.2861 58.3105 82 50.9475 82 50.9475C73.0993 56.7316 68.9934 59.2038 65.351 60.3689C66.5357 61.9444 67.1553 63.4833 66.9066 64.8544C66.7034 65.9746 65.9326 67.294 64.7289 68.6652ZM40.6191 47.7014C46.0691 38.5269 48.4706 38.25 48.4706 38.25L62.7131 53.3621C62.7131 53.3621 61.2451 54.2137 60.2719 55.5598C55.0219 51.6289 48.0501 48.3503 44.6539 48.0067C44.2417 47.9658 42.8207 47.6789 40.6191 47.7014ZM26.674 58.9844C27.748 58.9844 28.6187 59.8627 28.6187 60.9478C28.6187 62.0329 27.748 62.9111 26.674 62.9111C25.5992 62.9111 24.7293 62.0329 24.7293 60.9478C24.7293 59.8627 25.5992 58.9844 26.674 58.9844Z" fill="#DE736C"/>
</svg>
