<svg width="100" height="100" viewBox="0 0 100 100" fill="none" xmlns="http://www.w3.org/2000/svg">
<rect width="100" height="100" rx="50" fill="#FFE299"/>
<path d="M65.127 49.5985C65.0975 49.5991 65.0685 49.6026 65.0389 49.6026C63.354 49.6026 61.9829 48.2094 61.9829 46.4966C61.9829 46.0868 62.0635 45.6965 62.2056 45.3375C62.2143 45.3157 62.2218 45.2938 62.2311 45.2726C62.6992 44.1671 63.7809 43.3906 65.0383 43.3906C66.7232 43.3906 68.0938 44.7838 68.0938 46.4966C68.0938 46.9636 67.9894 47.4046 67.8067 47.802C67.8101 47.7525 67.8142 47.7029 67.8142 47.6528C67.8142 46.5143 66.9059 45.5922 65.7877 45.5922C64.6683 45.5922 63.7611 46.5143 63.7611 47.6528C63.7617 48.5555 64.333 49.3196 65.127 49.5985Z" fill="black"/>
<path d="M39.2978 46.2656H59.7579C59.7533 46.2656 59.744 46.4319 59.744 46.5286C59.744 49.4948 62.1179 51.8957 65.0359 51.8957C67.9539 51.8957 70.3278 49.5007 70.3278 46.5351C70.3278 46.4378 70.3185 46.2656 70.3133 46.2656H76.8691C77.7715 46.2656 77.4148 47.196 77.4148 47.196L77.4131 47.183C76.042 51.6227 71.7564 60.7661 59.9986 60.8174L58.6281 60.8222L62.151 66.1321C62.3041 66.4823 62.6109 67.3973 61.9097 67.8837C61.1226 68.4297 60.3269 67.4244 60.1685 67.2081L55.9038 60.831C55.6614 60.8316 55.4879 60.8322 55.1684 60.8334V53.8437C55.1684 53.556 55.0651 53.0896 54.4851 53.0896H54.0037C53.1076 53.0896 52.9301 54.1173 52.9301 54.1173V60.4849L57.0928 66.7093C57.2564 67.119 57.5371 68.0311 56.8701 68.491C55.9954 69.0948 55.1075 67.7328 55.1075 67.7328C55.1075 67.7328 55.1086 67.7375 55.108 67.7381L50.5603 60.8799C49.5847 60.8994 48.6399 60.9283 47.7264 60.9672L51.5886 66.7883C51.7243 67.145 51.9557 67.9922 51.3427 68.4645L51.2429 68.5323C50.5829 68.9309 49.9774 68.3478 49.7372 68.063L45.1344 61.1228C44.588 61.1659 44.0527 61.2136 43.5411 61.2708L42.0737 53.6574C41.9519 53.3756 41.6225 52.8673 40.8708 52.9894L40.7351 53.0171C39.9266 53.2234 39.8859 53.9363 39.9045 54.221L41.376 61.5875C38.2225 62.1499 35.8045 63.1381 34.1074 64.8756L29.689 58.7916C29.4036 58.5953 28.9106 58.3659 28.4135 58.6218L28.0766 58.8753C27.5818 59.3924 27.833 60.0044 27.9513 60.2267L32.7044 66.7729C32.0415 67.9787 31.6117 69.4102 31.3982 71.1035L27.5992 70.4444C27.2072 70.4591 26.6446 70.6106 26.5025 71.3128L26.4845 71.4219C26.3389 72.5286 27.3301 72.6831 27.3301 72.6831C27.3301 72.6831 27.3423 72.6943 27.3597 72.7096L31.2439 73.3847C31.2376 73.7738 31.237 74.1712 31.2486 74.5839C31.284 75.9205 31.5049 77.085 31.8611 78.1038L30.6639 78.4475C30.3861 78.6291 29.972 79.0448 30.186 79.8231L30.1913 79.8413C30.4047 80.5895 30.9226 80.6709 31.2469 80.6414L32.8871 80.1715C35.0853 83.4461 39.0119 84.4661 41.641 84.4661L41.9792 84.4596L52.4557 78.7252C53.2526 78.5012 53.2172 79.079 53.1082 79.4817L49.8973 86.0286L52.8344 91.5448C52.9441 91.9752 52.8605 92.3626 51.9894 92.0306L42.0476 86.5492L41.8597 86.5185C41.0581 86.3858 22.247 83.0865 22.247 64.8397C22.2464 46.7078 38.6012 46.2656 39.2978 46.2656Z" fill="#997A29"/>
</svg>
