<svg width="100" height="101" viewBox="0 0 100 101" fill="none" xmlns="http://www.w3.org/2000/svg">
<rect y="0.15625" width="100" height="100" rx="50" fill="#EDD0FF"/>
<path d="M46.3737 54.9766C45.2563 55.1346 44.2166 55.6422 43.4016 56.4277C42.5866 57.2131 42.0376 58.2367 41.8321 59.3535C41.6267 60.4703 41.7753 61.6239 42.2568 62.6511C42.7384 63.6782 43.5286 64.527 44.5157 65.0772C45.5027 65.6275 46.6367 65.8514 47.7571 65.7174C48.8775 65.5833 49.9277 65.098 50.7591 64.3301C51.5905 63.5623 52.161 62.5507 52.3899 61.4385C52.6189 60.3263 52.4947 59.1698 52.0349 58.1326C50.9176 58.063 49.8298 57.7436 48.8505 57.1977C47.8712 56.6517 47.0251 55.893 46.3737 54.9766V54.9766Z" fill="#612A83"/>
<path d="M64.3581 77.6932C64.3563 77.3055 64.3132 76.9191 64.2298 76.5406C63.0734 76.6975 61.8964 76.5776 60.7947 76.1904C59.693 75.8032 58.6976 75.1598 57.8894 74.3125C56.7693 75.4706 55.31 76.237 53.7257 76.4994C53.5563 77.2439 53.5452 78.0161 53.693 78.7652C53.8409 79.5144 54.1444 80.2236 54.5836 80.8464C55.0228 81.4693 55.5878 81.9916 56.2415 82.3792C56.8953 82.7669 57.6231 83.011 58.3772 83.0957C59.1312 83.1803 59.8946 83.1036 60.6171 82.8705C61.3397 82.6374 62.0051 82.2532 62.5698 81.7431C63.1346 81.233 63.5858 80.6085 63.894 79.9106C64.2022 79.2126 64.3604 78.457 64.3581 77.6932V77.6932Z" fill="#612A83"/>
<path d="M36.6882 54.9688C35.8629 55.0793 35.0743 55.3812 34.3846 55.8507C33.695 56.3202 33.123 56.9445 32.7138 57.6744C32.3046 58.4044 32.0694 59.22 32.0266 60.057C31.9839 60.894 32.1348 61.7296 32.4674 62.4979C32.8001 63.2662 33.3054 63.9463 33.9436 64.4846C34.5818 65.0228 35.3355 65.4046 36.1452 65.5997C36.9549 65.7948 37.7986 65.798 38.6097 65.6091C39.4209 65.4201 40.1774 65.0441 40.8196 64.5107C40.1578 63.5075 39.743 62.3599 39.6095 61.1632C39.476 59.9664 39.6277 58.7548 40.052 57.6288C38.6983 57.0891 37.5296 56.1649 36.6882 54.9688V54.9688Z" fill="#612A83"/>
<path d="M49.1387 67.6374C49.4502 69.3047 49.1906 71.0292 48.4023 72.5288C48.9084 73.1245 49.5367 73.6028 50.2439 73.9308C50.9511 74.2587 51.7206 74.4285 52.4992 74.4285C53.2779 74.4285 54.0473 74.2587 54.7545 73.9308C55.4618 73.6028 56.09 73.1245 56.5961 72.5288C55.8052 71.0285 55.5458 69.3016 55.8608 67.633C54.5849 67.2774 53.4256 66.5871 52.5014 65.6328C51.5746 66.5864 50.4149 67.2777 49.1387 67.6374V67.6374Z" fill="#612A83"/>
<path d="M63.2812 74.4311C66.2584 74.4311 68.6719 72.0016 68.6719 69.0046C68.6719 66.0077 66.2584 63.5781 63.2812 63.5781C60.3041 63.5781 57.8906 66.0077 57.8906 69.0046C57.8906 72.0016 60.3041 74.4311 63.2812 74.4311Z" fill="#612A83"/>
<path d="M42.7988 45.1328C41.5178 45.1312 40.2783 45.5896 39.303 46.4256C38.3277 47.2615 37.6806 48.4202 37.478 49.6935C37.2753 50.9667 37.5304 52.2709 38.1974 53.3718C38.8644 54.4727 39.8996 55.2979 41.1169 55.6993C42.1658 54.3161 43.6579 53.341 45.3399 52.9394C44.979 51.8498 44.87 50.6916 45.0211 49.5532C45.1723 48.4147 45.5796 47.326 46.2121 46.3701C45.2505 45.573 44.0444 45.1359 42.7988 45.1328Z" fill="#612A83"/>
<path d="M60.0462 50.5593C60.0471 52.05 59.6097 53.5077 58.7891 54.7486C59.5779 55.4024 60.5352 55.8171 61.5492 55.9442C62.5632 56.0714 63.5923 55.9057 64.5164 55.4667C65.4405 55.0276 66.2216 54.3332 66.7686 53.4643C67.3156 52.5955 67.6061 51.588 67.6061 50.5593C67.6061 49.5307 67.3156 48.5232 66.7686 47.6543C66.2216 46.7855 65.4405 46.091 64.5164 45.652C63.5923 45.2129 62.5632 45.0473 61.5492 45.1744C60.5352 45.3016 59.5779 45.7162 58.7891 46.3701C59.6097 47.6109 60.0471 49.0686 60.0462 50.5593V50.5593Z" fill="#612A83"/>
<path d="M65.4392 60.3271C65.4378 60.7873 65.3948 61.2465 65.3109 61.6989C67.2271 62.2409 68.8539 63.521 69.8391 65.262C70.777 64.8279 71.5719 64.1324 72.1296 63.2579C72.6873 62.3833 72.9845 61.3663 72.9861 60.3271C72.9895 59.0182 72.5189 57.7529 71.6624 56.768C70.8059 55.7832 69.6222 55.1463 68.3329 54.9766C67.479 56.1748 66.2982 57.0981 64.9336 57.6345C65.2632 58.4936 65.4345 59.4061 65.4392 60.3271V60.3271Z" fill="#612A83"/>
<path d="M53.5781 43.051V38.6229C53.58 37.0845 54.1221 35.5962 55.1085 34.4211C56.0949 33.246 57.4622 32.4597 58.9688 32.2012V30.0078C56.8854 30.2748 54.9701 31.2968 53.5811 32.8824C52.1921 34.4681 51.4245 36.5088 51.4219 38.6229V43.051C52.136 42.9352 52.864 42.9352 53.5781 43.051V43.051Z" fill="#B62D2D"/>
<path d="M52.5 55.9858C55.4772 55.9858 57.8906 53.5563 57.8906 50.5593C57.8906 47.5623 55.4772 45.1328 52.5 45.1328C49.5228 45.1328 47.1094 47.5623 47.1094 50.5593C47.1094 53.5563 49.5228 55.9858 52.5 55.9858Z" fill="#612A83"/>
<path d="M35.6753 48.0756C36.0717 46.9312 36.7335 45.8985 37.6057 45.063C38.478 44.2276 39.5356 43.6137 40.6907 43.2721C38.2675 42.3346 35.6913 41.8623 33.0953 41.8796C32.8094 41.8796 32.5352 41.7653 32.333 41.5618C32.1308 41.3582 32.0172 41.0822 32.0172 40.7943C32.0172 40.5065 32.1308 40.2304 32.333 40.0269C32.5352 39.8234 32.8094 39.709 33.0953 39.709C37.7321 39.6516 42.2705 41.0557 46.0749 43.7246C46.6392 43.9998 47.1672 44.3447 47.6468 44.7513C47.8268 44.5983 48.0155 44.455 48.2096 44.3172C47.2061 41.9836 45.547 39.9961 43.4365 38.599C41.3259 37.2019 38.8557 36.456 36.3297 36.4531H25.5938C25.8361 39.2151 26.9428 41.8284 28.7545 43.917C30.5661 46.0055 32.9893 47.4616 35.6753 48.0756V48.0756Z" fill="#55AE0F"/>
<path d="M56.5551 65.5792C57.1759 64.3465 58.1189 63.3076 59.2827 62.5744C60.4465 61.8411 61.787 61.4414 63.1597 61.4182C63.4005 60.3115 63.2795 59.1561 62.8147 58.1243C62.612 58.1406 62.4093 58.1558 62.2023 58.1558C60.4265 58.1528 58.7086 57.5194 57.3508 56.3672C56.4554 57.1264 55.3962 57.6645 54.2576 57.9387C54.516 58.7081 54.6503 59.5142 54.6555 60.3264C54.6569 61.5531 54.3609 62.7617 53.793 63.8471C54.5134 64.6984 55.4785 65.3036 56.5551 65.5792V65.5792Z" fill="#612A83"/>
<path d="M52.5 90.7166C53.9292 90.7149 55.2993 90.1426 56.3099 89.1253C57.3204 88.108 57.8889 86.7287 57.8906 85.2901C57.8906 85.2608 57.882 85.2315 57.882 85.2022C56.7747 85.0388 55.7173 84.6296 54.7865 84.0042C53.8556 83.3787 53.0746 82.5527 52.5 81.5859C51.9253 82.5528 51.1441 83.3789 50.2131 84.0044C49.282 84.6298 48.2244 85.039 47.1169 85.2022C47.1169 85.2315 47.1094 85.2608 47.1094 85.2901C47.1111 86.7287 47.6796 88.108 48.6901 89.1253C49.7007 90.1426 51.0708 90.7149 52.5 90.7166V90.7166Z" fill="#612A83"/>
<path d="M47.1091 69.0145C47.1058 68.6474 47.0653 68.2815 46.9883 67.9227C45.2542 67.8966 43.5826 67.2669 42.2575 66.1406C41.4666 66.822 40.5417 67.3277 39.5432 67.6245C38.5448 67.9213 37.4954 68.0026 36.4637 67.863C36.294 68.6101 36.2835 69.3849 36.4328 70.1364C36.5821 70.8879 36.8879 71.5991 37.3299 72.2231C37.772 72.847 38.3403 73.3696 38.9975 73.7565C39.6547 74.1434 40.3859 74.3858 41.1428 74.4676C41.8998 74.5495 42.6654 74.4691 43.3892 74.2316C44.1131 73.9941 44.7787 73.6049 45.3424 73.0898C45.906 72.5746 46.3549 71.9451 46.6594 71.2426C46.9639 70.5402 47.1172 69.7808 47.1091 69.0145V69.0145Z" fill="#612A83"/>
<path d="M46.032 83.1197C46.843 83.129 47.6455 82.9519 48.3782 82.6017C49.1109 82.2515 49.7546 81.7376 50.2601 81.0991C50.7657 80.4606 51.1198 79.7144 51.2954 78.9173C51.4711 78.1202 51.4637 77.2932 51.2738 76.4994C49.6898 76.2358 48.2309 75.4696 47.1101 74.3125C46.3016 75.1595 45.3062 75.8028 44.2046 76.1901C43.103 76.5774 41.9261 76.6979 40.7696 76.5417C40.5908 77.334 40.5925 78.1567 40.7743 78.9482C40.9562 79.7397 41.3136 80.4796 41.8198 81.1124C42.326 81.7451 42.9679 82.2544 43.6973 82.602C44.4268 82.9497 45.2249 83.1266 46.032 83.1197V83.1197Z" fill="#612A83"/>
</svg>
