<svg width="100" height="100" viewBox="0 0 100 100" fill="none" xmlns="http://www.w3.org/2000/svg">
<rect width="100" height="100" rx="50" fill="#D3E6C4"/>
<path d="M65.4329 93.0559C65.4329 95.0764 63.8818 96.6576 61.8998 96.6576H40.3567C38.4609 96.6576 36.8236 95.0764 36.8236 93.0559L33.5491 57.0387C35.7034 58.1807 38.2024 58.8835 40.7876 58.8835C49.3186 58.8835 56.2986 51.7679 56.2986 43.0711H68.2766V42.544C68.2766 39.8208 67.8457 38.6788 64.7435 38.6788H55.6092C55.4369 38.0638 55.2645 37.4489 55.006 36.9218H65.3467C67.9319 36.9218 70 39.0302 70 41.7534L65.4329 93.0559ZM39.9259 79.9667C40.4429 79.9667 40.7876 79.5275 40.7876 79.0883C40.7876 78.5612 40.4429 78.2098 39.9259 78.2098C39.4088 78.2098 39.0641 78.649 39.0641 79.0883C39.0641 79.6153 39.495 79.9667 39.9259 79.9667ZM39.9259 66.7897C38.978 66.7897 38.2024 67.5803 38.2024 68.5467C38.2024 69.513 38.978 70.3036 39.9259 70.3036C40.8737 70.3036 41.6493 69.513 41.6493 68.5467C41.6493 67.5803 40.8737 66.7897 39.9259 66.7897ZM45.0962 91.3868C44.5792 91.3868 44.2345 91.826 44.2345 92.2653C44.2345 92.7924 44.5792 93.1437 45.0962 93.1437C45.6132 93.1437 45.9579 92.7045 45.9579 92.2653C45.9579 91.7382 45.6132 91.3868 45.0962 91.3868ZM48.5431 79.9667C47.5952 79.9667 46.8196 80.7574 46.8196 81.7237C46.8196 82.69 47.5952 83.4806 48.5431 83.4806C49.491 83.4806 50.2665 82.69 50.2665 81.7237C50.2665 80.7574 49.491 79.9667 48.5431 79.9667ZM51.99 65.9113C51.4729 65.9113 51.1283 66.3505 51.1283 66.7897C51.1283 67.3168 51.4729 67.6682 51.99 67.6682C52.507 67.6682 52.8517 67.229 52.8517 66.7897C52.8517 66.2626 52.507 65.9113 51.99 65.9113ZM60.6072 91.3868C61.5551 91.3868 62.3307 90.5962 62.3307 89.6299C62.3307 88.6636 61.5551 87.8729 60.6072 87.8729C59.6593 87.8729 58.8838 88.6636 58.8838 89.6299C58.8838 90.5962 59.6593 91.3868 60.6072 91.3868ZM57.1603 78.2098C56.6433 78.2098 56.2986 78.649 56.2986 79.0883C56.2986 79.6153 56.6433 79.9667 57.1603 79.9667C57.6774 79.9667 58.022 79.5275 58.022 79.0883C58.022 78.5612 57.6774 78.2098 57.1603 78.2098ZM60.6072 58.8835C60.0902 58.8835 59.7455 59.3227 59.7455 59.762C59.7455 60.2891 60.0902 60.6404 60.6072 60.6404C61.1242 60.6404 61.4689 60.2012 61.4689 59.762C61.4689 59.2349 61.1242 58.8835 60.6072 58.8835ZM60.6072 68.5467C59.6593 68.5467 58.8838 69.3373 58.8838 70.3036C58.8838 71.2699 59.6593 72.0605 60.6072 72.0605C61.5551 72.0605 62.3307 71.2699 62.3307 70.3036C62.3307 69.3373 61.5551 68.5467 60.6072 68.5467ZM64.0541 47.4634C63.1062 47.4634 62.3307 48.2541 62.3307 49.2204C62.3307 50.1867 63.1062 50.9773 64.0541 50.9773C65.002 50.9773 65.7776 50.1867 65.7776 49.2204C65.7776 48.2541 65.002 47.4634 64.0541 47.4634ZM40.7876 57.1266C33.2044 57.1266 27 50.8016 27 43.0711C27 35.3406 33.2044 29.0156 40.7876 29.0156C48.3707 29.0156 54.5751 35.3406 54.5751 43.0711C54.5751 50.8016 48.3707 57.1266 40.7876 57.1266ZM40.7876 30.7726C34.1523 30.7726 28.7234 36.3069 28.7234 43.0711C28.7234 49.8353 34.1523 55.3696 40.7876 55.3696C47.4228 55.3696 52.8517 49.8353 52.8517 43.0711C52.8517 36.3069 47.4228 30.7726 40.7876 30.7726ZM48.4569 50.2745C47.8537 50.6259 47.3367 50.8895 46.8196 50.2745C45.9579 49.3082 42.4249 45.2673 41.9078 44.301C41.5631 43.686 41.7355 43.4225 42.511 43.3346C43.2866 43.3346 49.0601 44.2131 50.4389 44.4766C51.1283 44.6523 51.2144 45.0916 51.2144 45.7944C51.2144 47.2877 49.8357 49.5718 48.4569 50.2745ZM50.3527 41.6656C49.0601 41.9291 43.6313 42.8076 42.511 42.8076C41.7355 42.8076 41.5631 42.4562 41.9078 41.8412C42.2525 41.1385 45.9579 36.834 46.8196 35.8677C47.2505 35.3406 47.7675 35.5163 48.4569 35.8677C49.8357 36.5704 51.2144 38.8545 51.1283 40.3479C51.1283 40.9628 51.1283 41.4899 50.3527 41.6656ZM41.3908 41.5777C41.0461 42.1926 40.6152 42.1926 40.2705 41.5777C39.8397 40.8749 37.7715 35.692 37.3407 34.4621C37.0822 33.8472 37.513 33.4958 38.2024 33.1444C39.495 32.3538 42.2525 32.3538 43.5451 33.1444C44.1483 33.4958 44.6653 33.7593 44.4068 34.4621C43.8898 35.692 41.9078 40.6114 41.3908 41.5777ZM39.7535 41.8412C40.0982 42.4562 39.9259 42.7197 39.1503 42.8076C38.0301 42.8076 32.6012 41.9291 31.3086 41.6656C30.5331 41.4899 30.5331 40.9628 30.5331 40.26C30.4469 38.7666 31.8257 36.4826 33.2044 35.7798C33.8938 35.4284 34.3246 35.2527 34.8417 35.7798C35.7034 36.834 39.3226 41.1385 39.7535 41.8412ZM31.2224 44.4766C32.515 44.2131 38.2886 43.3346 39.1503 43.3346C39.8397 43.3346 40.0982 43.686 39.7535 44.301C39.2365 45.2673 35.7034 49.3082 34.8417 50.2745C34.3246 50.8895 33.8076 50.6259 33.2044 50.2745C31.8257 49.5718 30.4469 47.2877 30.5331 45.7944C30.5331 45.0916 30.5331 44.5645 31.2224 44.4766ZM40.2705 44.5645C40.6152 43.9496 41.0461 43.9496 41.3908 44.5645C41.994 45.5308 43.8898 50.4502 44.3206 51.6801C44.5792 52.3829 44.0621 52.6464 43.4589 52.9978C42.1663 53.7884 39.4088 53.7884 38.1162 52.9978C37.4269 52.5585 37.0822 52.295 37.2545 51.6801C37.6854 50.4502 39.8397 45.2673 40.2705 44.5645Z" fill="#55AE0F"/>
</svg>
