<svg width="100" height="101" viewBox="0 0 100 101" fill="none" xmlns="http://www.w3.org/2000/svg">
<rect y="0.15625" width="100" height="100" rx="50" fill="#FFD9BA"/>
<path d="M39.0698 55.8326C34.7386 65.4691 34.8417 75.315 39.2761 84.9515C38.0386 85.0562 35.5636 85.161 34.223 85.0562C28.8605 84.6373 24.2198 80.3427 21.848 75.6293C18.2386 68.1924 18.548 57.9275 24.4261 51.7476C29.3761 46.5104 36.3886 45.044 43.5042 44.625C42.6792 45.044 39.8948 45.7772 39.7917 45.7772C39.2761 45.6724 38.7605 45.9867 38.5542 46.4056C38.348 46.9294 38.5542 47.5578 39.0698 47.7673C39.0698 47.7673 41.5448 48.3958 43.298 48.5005C41.8542 50.5954 40.3073 53.1093 39.0698 55.8326Z" fill="#FF7300"/>
<path d="M58.1498 85.2623C57.9435 85.786 57.531 86.205 57.1185 86.5192C55.4685 87.2524 52.9935 87.9856 49.8998 87.9856C46.9091 88.0904 44.4341 87.3572 42.681 86.5192C42.2685 86.205 41.9591 85.6813 41.6498 85.2623C36.906 75.7306 36.5966 66.1989 40.8248 56.7719C42.3716 53.4201 44.2279 50.592 45.981 48.3924C46.3935 48.2876 46.9091 48.1829 47.3216 48.0781C47.8373 49.5445 48.7654 51.5347 50.4154 51.7442C52.1685 51.8489 53.1998 50.173 53.9216 48.8113C55.5716 51.011 57.3248 53.6296 58.7685 56.8766C63.2029 66.1989 62.8935 75.7306 58.1498 85.2623Z" fill="#FF7300"/>
<path d="M78.05 75.6293C75.7813 80.3427 71.0375 84.6373 65.675 85.0562C64.3344 85.161 61.9625 85.0562 60.6219 84.9515C65.1594 75.2103 65.2625 65.4691 60.8281 55.8326C59.6937 53.3188 58.3531 51.1191 57.0125 49.129C58.1469 49.2337 59.3844 49.0243 60.725 48.6053C61.1375 48.3958 61.4469 47.9768 61.4469 47.5578C61.4469 46.7199 60.8281 46.6151 60.3125 46.5104C60.1062 46.4056 57.7344 45.3582 56.7031 44.625C63.7156 45.044 70.5219 46.5104 75.4719 51.6429C81.4531 57.9275 81.7625 68.1924 78.05 75.6293Z" fill="#FF7300"/>
<path d="M53.9203 32.2644C53.4047 32.055 52.6828 32.9977 52.4766 33.3119C51.8578 34.0451 50.5172 39.387 49.5891 41.0629C47.8359 43.9958 44.5359 45.7764 41.3391 46.6144C40.9266 46.7191 39.9984 47.1381 39.5859 47.0334C39.5859 47.0334 44.2266 48.4998 48.3516 46.7191C48.3516 46.7191 50.2078 55.3081 53.7141 47.3476C53.7141 47.3476 57.0141 49.1282 60.5203 47.7666C60.2109 47.8713 59.3859 47.3476 59.1797 47.2429C56.3953 46.0907 53.4047 43.891 52.8891 40.644C52.6828 39.1776 53.4047 36.14 55.2609 36.0352C55.4672 36.0352 55.6734 35.9305 55.7766 35.6163C55.8797 34.883 56.0859 33.1024 53.9203 32.2644Z" fill="#55AE0F"/>
</svg>
